<svg xmlns="http://www.w3.org/2000/svg" width="1000" height="1000" viewBox="0 0 1000 1000">
  <g id="Group_1" data-name="Group 1" transform="translate(-33 -24)">
    <g id="Rectangle_1" data-name="Rectangle 1" transform="translate(33 24)" fill="rgba(0,0,0,0.1)" stroke="rgba(0,0,0,0.15)" stroke-width="1">
      <rect width="100" height="100" stroke="none"/>
      <rect x="0.5" y="0.5" width="99" height="99" fill="none"/>
    </g>
    <g id="Rectangle_77" data-name="Rectangle 77" transform="translate(33 424)" fill="rgba(0,0,0,0.1)" stroke="rgba(0,0,0,0.15)" stroke-width="1">
      <rect width="100" height="100" stroke="none"/>
      <rect x="0.5" y="0.5" width="99" height="99" fill="none"/>
    </g>
    <g id="Rectangle_39" data-name="Rectangle 39" transform="translate(33 224)" fill="rgba(0,0,0,0.1)" stroke="rgba(0,0,0,0.15)" stroke-width="1">
      <rect width="100" height="100" stroke="none"/>
      <rect x="0.5" y="0.5" width="99" height="99" fill="none"/>
    </g>
    <g id="Rectangle_78" data-name="Rectangle 78" transform="translate(33 624)" fill="rgba(0,0,0,0.1)" stroke="rgba(0,0,0,0.15)" stroke-width="1">
      <rect width="100" height="100" stroke="none"/>
      <rect x="0.5" y="0.5" width="99" height="99" fill="none"/>
    </g>
    <g id="Rectangle_99" data-name="Rectangle 99" transform="translate(33 824)" fill="rgba(0,0,0,0.1)" stroke="rgba(0,0,0,0.15)" stroke-width="1">
      <rect width="100" height="100" stroke="none"/>
      <rect x="0.5" y="0.5" width="99" height="99" fill="none"/>
    </g>
    <g id="Rectangle_20" data-name="Rectangle 20" transform="translate(33 124)" fill="rgba(0,0,0,0.1)" stroke="rgba(0,0,0,0.15)" stroke-width="1">
      <rect width="100" height="100" stroke="none"/>
      <rect x="0.5" y="0.5" width="99" height="99" fill="none"/>
    </g>
    <g id="Rectangle_79" data-name="Rectangle 79" transform="translate(33 524)" fill="rgba(0,0,0,0.1)" stroke="rgba(0,0,0,0.15)" stroke-width="1">
      <rect width="100" height="100" stroke="none"/>
      <rect x="0.5" y="0.5" width="99" height="99" fill="none"/>
    </g>
    <g id="Rectangle_40" data-name="Rectangle 40" transform="translate(33 324)" fill="rgba(0,0,0,0.1)" stroke="rgba(0,0,0,0.15)" stroke-width="1">
      <rect width="100" height="100" stroke="none"/>
      <rect x="0.5" y="0.5" width="99" height="99" fill="none"/>
    </g>
    <g id="Rectangle_80" data-name="Rectangle 80" transform="translate(33 724)" fill="rgba(0,0,0,0.1)" stroke="rgba(0,0,0,0.15)" stroke-width="1">
      <rect width="100" height="100" stroke="none"/>
      <rect x="0.5" y="0.5" width="99" height="99" fill="none"/>
    </g>
    <g id="Rectangle_100" data-name="Rectangle 100" transform="translate(33 924)" fill="rgba(0,0,0,0.1)" stroke="rgba(0,0,0,0.15)" stroke-width="1">
      <rect width="100" height="100" stroke="none"/>
      <rect x="0.5" y="0.5" width="99" height="99" fill="none"/>
    </g>
    <g id="Rectangle_6" data-name="Rectangle 6" transform="translate(333 24)" fill="rgba(0,0,0,0.1)" stroke="rgba(0,0,0,0.15)" stroke-width="1">
      <rect width="100" height="100" stroke="none"/>
      <rect x="0.5" y="0.5" width="99" height="99" fill="none"/>
    </g>
    <g id="Rectangle_62" data-name="Rectangle 62" transform="translate(333 424)" fill="rgba(0,0,0,0.1)" stroke="rgba(0,0,0,0.15)" stroke-width="1">
      <rect width="100" height="100" stroke="none"/>
      <rect x="0.5" y="0.5" width="99" height="99" fill="none"/>
    </g>
    <g id="Rectangle_26" data-name="Rectangle 26" transform="translate(333 224)" fill="rgba(0,0,0,0.1)" stroke="rgba(0,0,0,0.15)" stroke-width="1">
      <rect width="100" height="100" stroke="none"/>
      <rect x="0.5" y="0.5" width="99" height="99" fill="none"/>
    </g>
    <g id="Rectangle_59" data-name="Rectangle 59" transform="translate(333 624)" fill="rgba(0,0,0,0.1)" stroke="rgba(0,0,0,0.15)" stroke-width="1">
      <rect width="100" height="100" stroke="none"/>
      <rect x="0.5" y="0.5" width="99" height="99" fill="none"/>
    </g>
    <g id="Rectangle_85" data-name="Rectangle 85" transform="translate(333 824)" fill="rgba(0,0,0,0.1)" stroke="rgba(0,0,0,0.15)" stroke-width="1">
      <rect width="100" height="100" stroke="none"/>
      <rect x="0.5" y="0.5" width="99" height="99" fill="none"/>
    </g>
    <g id="Rectangle_16" data-name="Rectangle 16" transform="translate(333 124)" fill="rgba(0,0,0,0.1)" stroke="rgba(0,0,0,0.15)" stroke-width="1">
      <rect width="100" height="100" stroke="none"/>
      <rect x="0.5" y="0.5" width="99" height="99" fill="none"/>
    </g>
    <g id="Rectangle_60" data-name="Rectangle 60" transform="translate(333 524)" fill="rgba(0,0,0,0.1)" stroke="rgba(0,0,0,0.15)" stroke-width="1">
      <rect width="100" height="100" stroke="none"/>
      <rect x="0.5" y="0.5" width="99" height="99" fill="none"/>
    </g>
    <g id="Rectangle_27" data-name="Rectangle 27" transform="translate(333 324)" fill="rgba(0,0,0,0.1)" stroke="rgba(0,0,0,0.15)" stroke-width="1">
      <rect width="100" height="100" stroke="none"/>
      <rect x="0.5" y="0.5" width="99" height="99" fill="none"/>
    </g>
    <g id="Rectangle_61" data-name="Rectangle 61" transform="translate(333 724)" fill="rgba(0,0,0,0.1)" stroke="rgba(0,0,0,0.15)" stroke-width="1">
      <rect width="100" height="100" stroke="none"/>
      <rect x="0.5" y="0.5" width="99" height="99" fill="none"/>
    </g>
    <g id="Rectangle_86" data-name="Rectangle 86" transform="translate(333 924)" fill="rgba(0,0,0,0.1)" stroke="rgba(0,0,0,0.15)" stroke-width="1">
      <rect width="100" height="100" stroke="none"/>
      <rect x="0.5" y="0.5" width="99" height="99" fill="none"/>
    </g>
    <g id="Rectangle_7" data-name="Rectangle 7" transform="translate(733 24)" fill="rgba(0,0,0,0.1)" stroke="rgba(0,0,0,0.15)" stroke-width="1">
      <rect width="100" height="100" stroke="none"/>
      <rect x="0.5" y="0.5" width="99" height="99" fill="none"/>
    </g>
    <g id="Rectangle_63" data-name="Rectangle 63" transform="translate(733 424)" fill="rgba(0,0,0,0.1)" stroke="rgba(0,0,0,0.15)" stroke-width="1">
      <rect width="100" height="100" stroke="none"/>
      <rect x="0.5" y="0.5" width="99" height="99" fill="none"/>
    </g>
    <g id="Rectangle_28" data-name="Rectangle 28" transform="translate(733 224)" fill="rgba(0,0,0,0.1)" stroke="rgba(0,0,0,0.15)" stroke-width="1">
      <rect width="100" height="100" stroke="none"/>
      <rect x="0.5" y="0.5" width="99" height="99" fill="none"/>
    </g>
    <g id="Rectangle_45" data-name="Rectangle 45" transform="translate(733 624)" fill="rgba(0,0,0,0.1)" stroke="rgba(0,0,0,0.15)" stroke-width="1">
      <rect width="100" height="100" stroke="none"/>
      <rect x="0.5" y="0.5" width="99" height="99" fill="none"/>
    </g>
    <g id="Rectangle_87" data-name="Rectangle 87" transform="translate(733 824)" fill="rgba(0,0,0,0.1)" stroke="rgba(0,0,0,0.15)" stroke-width="1">
      <rect width="100" height="100" stroke="none"/>
      <rect x="0.5" y="0.5" width="99" height="99" fill="none"/>
    </g>
    <g id="Rectangle_11" data-name="Rectangle 11" transform="translate(733 124)" fill="rgba(0,0,0,0.1)" stroke="rgba(0,0,0,0.15)" stroke-width="1">
      <rect width="100" height="100" stroke="none"/>
      <rect x="0.5" y="0.5" width="99" height="99" fill="none"/>
    </g>
    <g id="Rectangle_47" data-name="Rectangle 47" transform="translate(733 524)" fill="rgba(0,0,0,0.1)" stroke="rgba(0,0,0,0.15)" stroke-width="1">
      <rect width="100" height="100" stroke="none"/>
      <rect x="0.5" y="0.5" width="99" height="99" fill="none"/>
    </g>
    <g id="Rectangle_21" data-name="Rectangle 21" transform="translate(733 324)" fill="rgba(0,0,0,0.1)" stroke="rgba(0,0,0,0.15)" stroke-width="1">
      <rect width="100" height="100" stroke="none"/>
      <rect x="0.5" y="0.5" width="99" height="99" fill="none"/>
    </g>
    <g id="Rectangle_46" data-name="Rectangle 46" transform="translate(733 724)" fill="rgba(0,0,0,0.1)" stroke="rgba(0,0,0,0.15)" stroke-width="1">
      <rect width="100" height="100" stroke="none"/>
      <rect x="0.5" y="0.5" width="99" height="99" fill="none"/>
    </g>
    <g id="Rectangle_81" data-name="Rectangle 81" transform="translate(733 924)" fill="rgba(0,0,0,0.1)" stroke="rgba(0,0,0,0.15)" stroke-width="1">
      <rect width="100" height="100" stroke="none"/>
      <rect x="0.5" y="0.5" width="99" height="99" fill="none"/>
    </g>
    <g id="Rectangle_2" data-name="Rectangle 2" transform="translate(133 24)" fill="rgba(0,0,0,0.1)" stroke="rgba(0,0,0,0.15)" stroke-width="1">
      <rect width="100" height="100" stroke="none"/>
      <rect x="0.5" y="0.5" width="99" height="99" fill="none"/>
    </g>
    <g id="Rectangle_73" data-name="Rectangle 73" transform="translate(133 424)" fill="rgba(0,0,0,0.1)" stroke="rgba(0,0,0,0.15)" stroke-width="1">
      <rect width="100" height="100" stroke="none"/>
      <rect x="0.5" y="0.5" width="99" height="99" fill="none"/>
    </g>
    <g id="Rectangle_37" data-name="Rectangle 37" transform="translate(133 224)" fill="rgba(0,0,0,0.1)" stroke="rgba(0,0,0,0.15)" stroke-width="1">
      <rect width="100" height="100" stroke="none"/>
      <rect x="0.5" y="0.5" width="99" height="99" fill="none"/>
    </g>
    <g id="Rectangle_74" data-name="Rectangle 74" transform="translate(133 624)" fill="rgba(0,0,0,0.1)" stroke="rgba(0,0,0,0.15)" stroke-width="1">
      <rect width="100" height="100" stroke="none"/>
      <rect x="0.5" y="0.5" width="99" height="99" fill="none"/>
    </g>
    <g id="Rectangle_97" data-name="Rectangle 97" transform="translate(133 824)" fill="rgba(0,0,0,0.1)" stroke="rgba(0,0,0,0.15)" stroke-width="1">
      <rect width="100" height="100" stroke="none"/>
      <rect x="0.5" y="0.5" width="99" height="99" fill="none"/>
    </g>
    <g id="Rectangle_19" data-name="Rectangle 19" transform="translate(133 124)" fill="rgba(0,0,0,0.1)" stroke="rgba(0,0,0,0.15)" stroke-width="1">
      <rect width="100" height="100" stroke="none"/>
      <rect x="0.5" y="0.5" width="99" height="99" fill="none"/>
    </g>
    <g id="Rectangle_75" data-name="Rectangle 75" transform="translate(133 524)" fill="rgba(0,0,0,0.1)" stroke="rgba(0,0,0,0.15)" stroke-width="1">
      <rect width="100" height="100" stroke="none"/>
      <rect x="0.5" y="0.5" width="99" height="99" fill="none"/>
    </g>
    <g id="Rectangle_38" data-name="Rectangle 38" transform="translate(133 324)" fill="rgba(0,0,0,0.1)" stroke="rgba(0,0,0,0.15)" stroke-width="1">
      <rect width="100" height="100" stroke="none"/>
      <rect x="0.5" y="0.5" width="99" height="99" fill="none"/>
    </g>
    <g id="Rectangle_76" data-name="Rectangle 76" transform="translate(133 724)" fill="rgba(0,0,0,0.1)" stroke="rgba(0,0,0,0.15)" stroke-width="1">
      <rect width="100" height="100" stroke="none"/>
      <rect x="0.5" y="0.5" width="99" height="99" fill="none"/>
    </g>
    <g id="Rectangle_98" data-name="Rectangle 98" transform="translate(133 924)" fill="rgba(0,0,0,0.1)" stroke="rgba(0,0,0,0.15)" stroke-width="1">
      <rect width="100" height="100" stroke="none"/>
      <rect x="0.5" y="0.5" width="99" height="99" fill="none"/>
    </g>
    <g id="Rectangle_5" data-name="Rectangle 5" transform="translate(433 24)" fill="rgba(0,0,0,0.1)" stroke="rgba(0,0,0,0.15)" stroke-width="1">
      <rect width="100" height="100" stroke="none"/>
      <rect x="0.5" y="0.5" width="99" height="99" fill="none"/>
    </g>
    <g id="Rectangle_64" data-name="Rectangle 64" transform="translate(433 424)" fill="rgba(0,0,0,0.1)" stroke="rgba(0,0,0,0.15)" stroke-width="1">
      <rect width="100" height="100" stroke="none"/>
      <rect x="0.5" y="0.5" width="99" height="99" fill="none"/>
    </g>
    <g id="Rectangle_29" data-name="Rectangle 29" transform="translate(433 224)" fill="rgba(0,0,0,0.1)" stroke="rgba(0,0,0,0.15)" stroke-width="1">
      <rect width="100" height="100" stroke="none"/>
      <rect x="0.5" y="0.5" width="99" height="99" fill="none"/>
    </g>
    <g id="Rectangle_56" data-name="Rectangle 56" transform="translate(433 624)" fill="rgba(0,0,0,0.1)" stroke="rgba(0,0,0,0.15)" stroke-width="1">
      <rect width="100" height="100" stroke="none"/>
      <rect x="0.5" y="0.5" width="99" height="99" fill="none"/>
    </g>
    <g id="Rectangle_88" data-name="Rectangle 88" transform="translate(433 824)" fill="rgba(0,0,0,0.1)" stroke="rgba(0,0,0,0.15)" stroke-width="1">
      <rect width="100" height="100" stroke="none"/>
      <rect x="0.5" y="0.5" width="99" height="99" fill="none"/>
    </g>
    <g id="Rectangle_17" data-name="Rectangle 17" transform="translate(433 124)" fill="rgba(0,0,0,0.1)" stroke="rgba(0,0,0,0.15)" stroke-width="1">
      <rect width="100" height="100" stroke="none"/>
      <rect x="0.5" y="0.5" width="99" height="99" fill="none"/>
    </g>
    <g id="Rectangle_57" data-name="Rectangle 57" transform="translate(433 524)" fill="rgba(0,0,0,0.1)" stroke="rgba(0,0,0,0.15)" stroke-width="1">
      <rect width="100" height="100" stroke="none"/>
      <rect x="0.5" y="0.5" width="99" height="99" fill="none"/>
    </g>
    <g id="Rectangle_30" data-name="Rectangle 30" transform="translate(433 324)" fill="rgba(0,0,0,0.1)" stroke="rgba(0,0,0,0.15)" stroke-width="1">
      <rect width="100" height="100" stroke="none"/>
      <rect x="0.5" y="0.5" width="99" height="99" fill="none"/>
    </g>
    <g id="Rectangle_58" data-name="Rectangle 58" transform="translate(433 724)" fill="rgba(0,0,0,0.1)" stroke="rgba(0,0,0,0.15)" stroke-width="1">
      <rect width="100" height="100" stroke="none"/>
      <rect x="0.5" y="0.5" width="99" height="99" fill="none"/>
    </g>
    <g id="Rectangle_89" data-name="Rectangle 89" transform="translate(433 924)" fill="rgba(0,0,0,0.1)" stroke="rgba(0,0,0,0.15)" stroke-width="1">
      <rect width="100" height="100" stroke="none"/>
      <rect x="0.5" y="0.5" width="99" height="99" fill="none"/>
    </g>
    <g id="Rectangle_8" data-name="Rectangle 8" transform="translate(833 24)" fill="rgba(0,0,0,0.1)" stroke="rgba(0,0,0,0.15)" stroke-width="1">
      <rect width="100" height="100" stroke="none"/>
      <rect x="0.5" y="0.5" width="99" height="99" fill="none"/>
    </g>
    <g id="Rectangle_65" data-name="Rectangle 65" transform="translate(833 424)" fill="rgba(0,0,0,0.1)" stroke="rgba(0,0,0,0.15)" stroke-width="1">
      <rect width="100" height="100" stroke="none"/>
      <rect x="0.5" y="0.5" width="99" height="99" fill="none"/>
    </g>
    <g id="Rectangle_31" data-name="Rectangle 31" transform="translate(833 224)" fill="rgba(0,0,0,0.1)" stroke="rgba(0,0,0,0.15)" stroke-width="1">
      <rect width="100" height="100" stroke="none"/>
      <rect x="0.5" y="0.5" width="99" height="99" fill="none"/>
    </g>
    <g id="Rectangle_42" data-name="Rectangle 42" transform="translate(833 624)" fill="rgba(0,0,0,0.1)" stroke="rgba(0,0,0,0.15)" stroke-width="1">
      <rect width="100" height="100" stroke="none"/>
      <rect x="0.5" y="0.5" width="99" height="99" fill="none"/>
    </g>
    <g id="Rectangle_90" data-name="Rectangle 90" transform="translate(833 824)" fill="rgba(0,0,0,0.1)" stroke="rgba(0,0,0,0.15)" stroke-width="1">
      <rect width="100" height="100" stroke="none"/>
      <rect x="0.5" y="0.5" width="99" height="99" fill="none"/>
    </g>
    <g id="Rectangle_12" data-name="Rectangle 12" transform="translate(833 124)" fill="rgba(0,0,0,0.1)" stroke="rgba(0,0,0,0.15)" stroke-width="1">
      <rect width="100" height="100" stroke="none"/>
      <rect x="0.5" y="0.5" width="99" height="99" fill="none"/>
    </g>
    <g id="Rectangle_48" data-name="Rectangle 48" transform="translate(833 524)" fill="rgba(0,0,0,0.1)" stroke="rgba(0,0,0,0.15)" stroke-width="1">
      <rect width="100" height="100" stroke="none"/>
      <rect x="0.5" y="0.5" width="99" height="99" fill="none"/>
    </g>
    <g id="Rectangle_22" data-name="Rectangle 22" transform="translate(833 324)" fill="rgba(0,0,0,0.1)" stroke="rgba(0,0,0,0.15)" stroke-width="1">
      <rect width="100" height="100" stroke="none"/>
      <rect x="0.5" y="0.5" width="99" height="99" fill="none"/>
    </g>
    <g id="Rectangle_43" data-name="Rectangle 43" transform="translate(833 724)" fill="rgba(0,0,0,0.1)" stroke="rgba(0,0,0,0.15)" stroke-width="1">
      <rect width="100" height="100" stroke="none"/>
      <rect x="0.5" y="0.5" width="99" height="99" fill="none"/>
    </g>
    <g id="Rectangle_82" data-name="Rectangle 82" transform="translate(833 924)" fill="rgba(0,0,0,0.1)" stroke="rgba(0,0,0,0.15)" stroke-width="1">
      <rect width="100" height="100" stroke="none"/>
      <rect x="0.5" y="0.5" width="99" height="99" fill="none"/>
    </g>
    <g id="Rectangle_3" data-name="Rectangle 3" transform="translate(233 24)" fill="rgba(0,0,0,0.1)" stroke="rgba(0,0,0,0.15)" stroke-width="1">
      <rect width="100" height="100" stroke="none"/>
      <rect x="0.5" y="0.5" width="99" height="99" fill="none"/>
    </g>
    <g id="Rectangle_69" data-name="Rectangle 69" transform="translate(233 424)" fill="rgba(0,0,0,0.1)" stroke="rgba(0,0,0,0.15)" stroke-width="1">
      <rect width="100" height="100" stroke="none"/>
      <rect x="0.5" y="0.5" width="99" height="99" fill="none"/>
    </g>
    <g id="Rectangle_32" data-name="Rectangle 32" transform="translate(233 224)" fill="rgba(0,0,0,0.1)" stroke="rgba(0,0,0,0.15)" stroke-width="1">
      <rect width="100" height="100" stroke="none"/>
      <rect x="0.5" y="0.5" width="99" height="99" fill="none"/>
    </g>
    <g id="Rectangle_70" data-name="Rectangle 70" transform="translate(233 624)" fill="rgba(0,0,0,0.1)" stroke="rgba(0,0,0,0.15)" stroke-width="1">
      <rect width="100" height="100" stroke="none"/>
      <rect x="0.5" y="0.5" width="99" height="99" fill="none"/>
    </g>
    <g id="Rectangle_95" data-name="Rectangle 95" transform="translate(233 824)" fill="rgba(0,0,0,0.1)" stroke="rgba(0,0,0,0.15)" stroke-width="1">
      <rect width="100" height="100" stroke="none"/>
      <rect x="0.5" y="0.5" width="99" height="99" fill="none"/>
    </g>
    <g id="Rectangle_18" data-name="Rectangle 18" transform="translate(233 124)" fill="rgba(0,0,0,0.1)" stroke="rgba(0,0,0,0.15)" stroke-width="1">
      <rect width="100" height="100" stroke="none"/>
      <rect x="0.5" y="0.5" width="99" height="99" fill="none"/>
    </g>
    <g id="Rectangle_71" data-name="Rectangle 71" transform="translate(233 524)" fill="rgba(0,0,0,0.1)" stroke="rgba(0,0,0,0.15)" stroke-width="1">
      <rect width="100" height="100" stroke="none"/>
      <rect x="0.5" y="0.5" width="99" height="99" fill="none"/>
    </g>
    <g id="Rectangle_33" data-name="Rectangle 33" transform="translate(233 324)" fill="rgba(0,0,0,0.1)" stroke="rgba(0,0,0,0.15)" stroke-width="1">
      <rect width="100" height="100" stroke="none"/>
      <rect x="0.5" y="0.5" width="99" height="99" fill="none"/>
    </g>
    <g id="Rectangle_72" data-name="Rectangle 72" transform="translate(233 724)" fill="rgba(0,0,0,0.1)" stroke="rgba(0,0,0,0.15)" stroke-width="1">
      <rect width="100" height="100" stroke="none"/>
      <rect x="0.5" y="0.5" width="99" height="99" fill="none"/>
    </g>
    <g id="Rectangle_96" data-name="Rectangle 96" transform="translate(233 924)" fill="rgba(0,0,0,0.1)" stroke="rgba(0,0,0,0.15)" stroke-width="1">
      <rect width="100" height="100" stroke="none"/>
      <rect x="0.5" y="0.5" width="99" height="99" fill="none"/>
    </g>
    <g id="Rectangle_10" data-name="Rectangle 10" transform="translate(633 24)" fill="rgba(0,0,0,0.1)" stroke="rgba(0,0,0,0.15)" stroke-width="1">
      <rect width="100" height="100" stroke="none"/>
      <rect x="0.5" y="0.5" width="99" height="99" fill="none"/>
    </g>
    <g id="Rectangle_66" data-name="Rectangle 66" transform="translate(633 424)" fill="rgba(0,0,0,0.1)" stroke="rgba(0,0,0,0.15)" stroke-width="1">
      <rect width="100" height="100" stroke="none"/>
      <rect x="0.5" y="0.5" width="99" height="99" fill="none"/>
    </g>
    <g id="Rectangle_34" data-name="Rectangle 34" transform="translate(633 224)" fill="rgba(0,0,0,0.1)" stroke="rgba(0,0,0,0.15)" stroke-width="1">
      <rect width="100" height="100" stroke="none"/>
      <rect x="0.5" y="0.5" width="99" height="99" fill="none"/>
    </g>
    <g id="Rectangle_49" data-name="Rectangle 49" transform="translate(633 624)" fill="rgba(0,0,0,0.1)" stroke="rgba(0,0,0,0.15)" stroke-width="1">
      <rect width="100" height="100" stroke="none"/>
      <rect x="0.5" y="0.5" width="99" height="99" fill="none"/>
    </g>
    <g id="Rectangle_91" data-name="Rectangle 91" transform="translate(633 824)" fill="rgba(0,0,0,0.1)" stroke="rgba(0,0,0,0.15)" stroke-width="1">
      <rect width="100" height="100" stroke="none"/>
      <rect x="0.5" y="0.5" width="99" height="99" fill="none"/>
    </g>
    <g id="Rectangle_13" data-name="Rectangle 13" transform="translate(633 124)" fill="rgba(0,0,0,0.1)" stroke="rgba(0,0,0,0.15)" stroke-width="1">
      <rect width="100" height="100" stroke="none"/>
      <rect x="0.5" y="0.5" width="99" height="99" fill="none"/>
    </g>
    <g id="Rectangle_50" data-name="Rectangle 50" transform="translate(633 524)" fill="rgba(0,0,0,0.1)" stroke="rgba(0,0,0,0.15)" stroke-width="1">
      <rect width="100" height="100" stroke="none"/>
      <rect x="0.5" y="0.5" width="99" height="99" fill="none"/>
    </g>
    <g id="Rectangle_23" data-name="Rectangle 23" transform="translate(633 324)" fill="rgba(0,0,0,0.1)" stroke="rgba(0,0,0,0.15)" stroke-width="1">
      <rect width="100" height="100" stroke="none"/>
      <rect x="0.5" y="0.5" width="99" height="99" fill="none"/>
    </g>
    <g id="Rectangle_51" data-name="Rectangle 51" transform="translate(633 724)" fill="rgba(0,0,0,0.1)" stroke="rgba(0,0,0,0.15)" stroke-width="1">
      <rect width="100" height="100" stroke="none"/>
      <rect x="0.5" y="0.5" width="99" height="99" fill="none"/>
    </g>
    <g id="Rectangle_84" data-name="Rectangle 84" transform="translate(633 924)" fill="rgba(0,0,0,0.1)" stroke="rgba(0,0,0,0.15)" stroke-width="1">
      <rect width="100" height="100" stroke="none"/>
      <rect x="0.5" y="0.5" width="99" height="99" fill="none"/>
    </g>
    <g id="Rectangle_4" data-name="Rectangle 4" transform="translate(533 24)" fill="rgba(0,0,0,0.1)" stroke="rgba(0,0,0,0.15)" stroke-width="1">
      <rect width="100" height="100" stroke="none"/>
      <rect x="0.5" y="0.5" width="99" height="99" fill="none"/>
    </g>
    <g id="Rectangle_67" data-name="Rectangle 67" transform="translate(533 424)" fill="rgba(0,0,0,0.1)" stroke="rgba(0,0,0,0.15)" stroke-width="1">
      <rect width="100" height="100" stroke="none"/>
      <rect x="0.5" y="0.5" width="99" height="99" fill="none"/>
    </g>
    <g id="Rectangle_35" data-name="Rectangle 35" transform="translate(533 224)" fill="rgba(0,0,0,0.1)" stroke="rgba(0,0,0,0.15)" stroke-width="1">
      <rect width="100" height="100" stroke="none"/>
      <rect x="0.5" y="0.5" width="99" height="99" fill="none"/>
    </g>
    <g id="Rectangle_53" data-name="Rectangle 53" transform="translate(533 624)" fill="rgba(0,0,0,0.1)" stroke="rgba(0,0,0,0.15)" stroke-width="1">
      <rect width="100" height="100" stroke="none"/>
      <rect x="0.5" y="0.5" width="99" height="99" fill="none"/>
    </g>
    <g id="Rectangle_92" data-name="Rectangle 92" transform="translate(533 824)" fill="rgba(0,0,0,0.1)" stroke="rgba(0,0,0,0.15)" stroke-width="1">
      <rect width="100" height="100" stroke="none"/>
      <rect x="0.5" y="0.5" width="99" height="99" fill="none"/>
    </g>
    <g id="Rectangle_14" data-name="Rectangle 14" transform="translate(533 124)" fill="rgba(0,0,0,0.1)" stroke="rgba(0,0,0,0.15)" stroke-width="1">
      <rect width="100" height="100" stroke="none"/>
      <rect x="0.5" y="0.5" width="99" height="99" fill="none"/>
    </g>
    <g id="Rectangle_54" data-name="Rectangle 54" transform="translate(533 524)" fill="rgba(0,0,0,0.1)" stroke="rgba(0,0,0,0.15)" stroke-width="1">
      <rect width="100" height="100" stroke="none"/>
      <rect x="0.5" y="0.5" width="99" height="99" fill="none"/>
    </g>
    <g id="Rectangle_25" data-name="Rectangle 25" transform="translate(533 324)" fill="rgba(0,0,0,0.1)" stroke="rgba(0,0,0,0.15)" stroke-width="1">
      <rect width="100" height="100" stroke="none"/>
      <rect x="0.5" y="0.5" width="99" height="99" fill="none"/>
    </g>
    <g id="Rectangle_55" data-name="Rectangle 55" transform="translate(533 724)" fill="rgba(0,0,0,0.1)" stroke="rgba(0,0,0,0.15)" stroke-width="1">
      <rect width="100" height="100" stroke="none"/>
      <rect x="0.5" y="0.5" width="99" height="99" fill="none"/>
    </g>
    <g id="Rectangle_93" data-name="Rectangle 93" transform="translate(533 924)" fill="rgba(0,0,0,0.1)" stroke="rgba(0,0,0,0.15)" stroke-width="1">
      <rect width="100" height="100" stroke="none"/>
      <rect x="0.5" y="0.5" width="99" height="99" fill="none"/>
    </g>
    <g id="Rectangle_9" data-name="Rectangle 9" transform="translate(933 24)" fill="rgba(0,0,0,0.1)" stroke="rgba(0,0,0,0.15)" stroke-width="1">
      <rect width="100" height="100" stroke="none"/>
      <rect x="0.5" y="0.5" width="99" height="99" fill="none"/>
    </g>
    <g id="Rectangle_68" data-name="Rectangle 68" transform="translate(933 424)" fill="rgba(0,0,0,0.1)" stroke="rgba(0,0,0,0.15)" stroke-width="1">
      <rect width="100" height="100" stroke="none"/>
      <rect x="0.5" y="0.5" width="99" height="99" fill="none"/>
    </g>
    <g id="Rectangle_36" data-name="Rectangle 36" transform="translate(933 224)" fill="rgba(0,0,0,0.1)" stroke="rgba(0,0,0,0.15)" stroke-width="1">
      <rect width="100" height="100" stroke="none"/>
      <rect x="0.5" y="0.5" width="99" height="99" fill="none"/>
    </g>
    <g id="Rectangle_44" data-name="Rectangle 44" transform="translate(933 624)" fill="rgba(0,0,0,0.1)" stroke="rgba(0,0,0,0.15)" stroke-width="1">
      <rect width="100" height="100" stroke="none"/>
      <rect x="0.5" y="0.5" width="99" height="99" fill="none"/>
    </g>
    <g id="Rectangle_94" data-name="Rectangle 94" transform="translate(933 824)" fill="rgba(0,0,0,0.1)" stroke="rgba(0,0,0,0.15)" stroke-width="1">
      <rect width="100" height="100" stroke="none"/>
      <rect x="0.5" y="0.5" width="99" height="99" fill="none"/>
    </g>
    <g id="Rectangle_15" data-name="Rectangle 15" transform="translate(933 124)" fill="rgba(0,0,0,0.1)" stroke="rgba(0,0,0,0.15)" stroke-width="1">
      <rect width="100" height="100" stroke="none"/>
      <rect x="0.5" y="0.5" width="99" height="99" fill="none"/>
    </g>
    <g id="Rectangle_52" data-name="Rectangle 52" transform="translate(933 524)" fill="rgba(0,0,0,0.1)" stroke="rgba(0,0,0,0.15)" stroke-width="1">
      <rect width="100" height="100" stroke="none"/>
      <rect x="0.5" y="0.5" width="99" height="99" fill="none"/>
    </g>
    <g id="Rectangle_24" data-name="Rectangle 24" transform="translate(933 324)" fill="rgba(0,0,0,0.1)" stroke="rgba(0,0,0,0.15)" stroke-width="1">
      <rect width="100" height="100" stroke="none"/>
      <rect x="0.5" y="0.5" width="99" height="99" fill="none"/>
    </g>
    <g id="Rectangle_41" data-name="Rectangle 41" transform="translate(933 724)" fill="rgba(0,0,0,0.1)" stroke="rgba(0,0,0,0.15)" stroke-width="1">
      <rect width="100" height="100" stroke="none"/>
      <rect x="0.5" y="0.5" width="99" height="99" fill="none"/>
    </g>
    <g id="Rectangle_83" data-name="Rectangle 83" transform="translate(933 924)" fill="rgba(0,0,0,0.1)" stroke="rgba(0,0,0,0.15)" stroke-width="1">
      <rect width="100" height="100" stroke="none"/>
      <rect x="0.5" y="0.5" width="99" height="99" fill="none"/>
    </g>
  </g>
</svg>
